<?xml version="1.0" encoding="UTF-8"?>
<svg width="231px" height="92px" viewBox="0 0 231 92" version="1.1" xmlns="http://www.w3.org/2000/svg" xmlns:xlink="http://www.w3.org/1999/xlink">
    <title>reporter-logo_en-US</title>
    <g id="reporter-logo_en-US" stroke="none" stroke-width="1" fill="none" fill-rule="evenodd">
        <path d="M9.6,47 L9.6,33.176 L14.064,33.176 L20.304,47 L26.928,47 L19.968,32.264 C21.984,31.528 23.568,30.344 24.72,28.712 C25.872,27.08 26.448,25.112 26.448,22.808 C26.448,21.24 26.176,19.816 25.632,18.536 C25.088,17.256 24.312,16.168 23.304,15.272 C22.296,14.376 21.08,13.68 19.656,13.184 C18.232,12.688 16.656,12.44 14.928,12.44 L14.928,12.44 L3.6,12.44 L3.6,47 L9.6,47 Z M14.928,28.328 L9.6,28.328 L9.6,17.528 L14.928,17.528 C16.56,17.528 17.872,18.024 18.864,19.016 C19.856,20.008 20.352,21.336 20.352,23 C20.352,24.632 19.864,25.928 18.888,26.888 C17.912,27.848 16.592,28.328 14.928,28.328 L14.928,28.328 Z M43.2,47.48 C44.608,47.48 45.928,47.312 47.16,46.976 C48.392,46.64 49.496,46.16 50.472,45.536 C51.448,44.912 52.272,44.16 52.944,43.28 C53.616,42.4 54.096,41.416 54.384,40.328 L54.384,40.328 L48.48,40.328 C48.096,41.064 47.44,41.64 46.512,42.056 C45.584,42.472 44.48,42.68 43.2,42.68 C41.472,42.68 40.12,42.184 39.144,41.192 C38.168,40.2 37.68,38.808 37.68,37.016 L37.68,37.016 L37.68,35.288 L54.576,35.288 L54.576,30.488 C54.576,28.92 54.304,27.496 53.76,26.216 C53.216,24.936 52.448,23.848 51.456,22.952 C50.464,22.056 49.272,21.36 47.88,20.864 C46.488,20.368 44.928,20.12 43.2,20.12 C41.44,20.12 39.856,20.36 38.448,20.84 C37.04,21.32 35.84,22.008 34.848,22.904 C33.856,23.8 33.088,24.888 32.544,26.168 C32,27.448 31.728,28.872 31.728,30.44 L31.728,30.44 L31.728,37.112 C31.728,38.68 32,40.104 32.544,41.384 C33.088,42.664 33.856,43.76 34.848,44.672 C35.84,45.584 37.048,46.28 38.472,46.76 C39.896,47.24 41.472,47.48 43.2,47.48 Z M48.72,31.256 L37.68,31.256 L37.68,30.44 C37.68,28.712 38.168,27.36 39.144,26.384 C40.12,25.408 41.472,24.92 43.2,24.92 C44.928,24.92 46.28,25.408 47.256,26.384 C48.232,27.36 48.72,28.728 48.72,30.488 L48.72,30.488 L48.72,31.256 Z M67.152,55.16 L67.152,47 C67.152,46.52 67.136,46.032 67.104,45.536 C67.072,45.04 67.048,44.568 67.032,44.12 C67.016,43.672 66.992,43.296 66.96,42.992 C66.928,42.688 66.912,42.488 66.912,42.392 L66.912,42.392 L67.344,42.392 C67.664,43.992 68.44,45.24 69.672,46.136 C70.904,47.032 72.48,47.48 74.4,47.48 C75.776,47.48 77.024,47.24 78.144,46.76 C79.264,46.28 80.216,45.584 81,44.672 C81.784,43.76 82.392,42.656 82.824,41.36 C83.256,40.064 83.472,38.616 83.472,37.016 L83.472,37.016 L83.472,30.44 C83.472,28.84 83.256,27.408 82.824,26.144 C82.392,24.88 81.784,23.8 81,22.904 C80.216,22.008 79.264,21.32 78.144,20.84 C77.024,20.36 75.776,20.12 74.4,20.12 C72.48,20.12 70.904,20.568 69.672,21.464 C68.44,22.36 67.664,23.592 67.344,25.16 L67.344,25.16 L66.912,25.16 L66.912,20.6 L61.104,20.6 L61.104,55.16 L67.152,55.16 Z M72.24,42.248 C70.672,42.248 69.432,41.768 68.52,40.808 C67.608,39.848 67.152,38.584 67.152,37.016 L67.152,37.016 L67.152,30.584 C67.152,28.984 67.616,27.704 68.544,26.744 C69.472,25.784 70.704,25.304 72.24,25.304 C73.872,25.304 75.152,25.776 76.08,26.72 C77.008,27.664 77.472,28.952 77.472,30.584 L77.472,30.584 L77.472,36.872 C77.472,38.504 77.008,39.808 76.08,40.784 C75.152,41.76 73.872,42.248 72.24,42.248 Z M100.8,47.48 C102.56,47.48 104.144,47.232 105.552,46.736 C106.96,46.24 108.16,45.536 109.152,44.624 C110.144,43.712 110.912,42.608 111.456,41.312 C112,40.016 112.272,38.584 112.272,37.016 L112.272,37.016 L112.272,30.536 C112.272,28.968 112,27.544 111.456,26.264 C110.912,24.984 110.144,23.888 109.152,22.976 C108.16,22.064 106.952,21.36 105.528,20.864 C104.104,20.368 102.528,20.12 100.8,20.12 C99.072,20.12 97.496,20.368 96.072,20.864 C94.648,21.36 93.44,22.064 92.448,22.976 C91.456,23.888 90.688,24.984 90.144,26.264 C89.6,27.544 89.328,28.968 89.328,30.536 L89.328,30.536 L89.328,37.016 C89.328,38.584 89.6,40.008 90.144,41.288 C90.688,42.568 91.456,43.664 92.448,44.576 C93.44,45.488 94.648,46.2 96.072,46.712 C97.496,47.224 99.072,47.48 100.8,47.48 Z M100.8,42.2 C99.104,42.2 97.768,41.736 96.792,40.808 C95.816,39.88 95.328,38.616 95.328,37.016 L95.328,37.016 L95.328,30.536 C95.328,28.936 95.816,27.672 96.792,26.744 C97.768,25.816 99.104,25.352 100.8,25.352 C102.496,25.352 103.832,25.816 104.808,26.744 C105.784,27.672 106.272,28.936 106.272,30.536 L106.272,30.536 L106.272,37.016 C106.272,38.616 105.784,39.88 104.808,40.808 C103.832,41.736 102.496,42.2 100.8,42.2 Z M125.76,47 L125.76,30.584 C125.76,28.92 126.2,27.608 127.08,26.648 C127.96,25.688 129.168,25.208 130.704,25.208 C132.336,25.208 133.616,25.68 134.544,26.624 C135.472,27.568 135.936,28.888 135.936,30.584 L135.936,30.584 L135.936,31.976 L142.224,31.976 L142.224,30.056 C142.224,26.952 141.424,24.52 139.824,22.76 C138.224,21 136,20.12 133.152,20.12 C131.168,20.12 129.536,20.56 128.256,21.44 C126.976,22.32 126.176,23.56 125.856,25.16 L125.856,25.16 L125.424,25.16 L125.424,20.6 L119.76,20.6 L119.76,47 L125.76,47 Z M169.008,47 L169.008,41.576 L162.288,41.576 C161.392,41.576 160.696,41.328 160.2,40.832 C159.704,40.336 159.456,39.672 159.456,38.84 L159.456,38.84 L159.456,26.024 L169.488,26.024 L169.488,20.6 L159.456,20.6 L159.456,12.44 L153.456,12.44 L153.456,20.6 L146.16,20.6 L146.16,26.024 L153.456,26.024 L153.456,38.84 C153.456,41.336 154.208,43.32 155.712,44.792 C157.216,46.264 159.264,47 161.856,47 L161.856,47 L169.008,47 Z M187.2,47.48 C188.608,47.48 189.928,47.312 191.16,46.976 C192.392,46.64 193.496,46.16 194.472,45.536 C195.448,44.912 196.272,44.16 196.944,43.28 C197.616,42.4 198.096,41.416 198.384,40.328 L198.384,40.328 L192.48,40.328 C192.096,41.064 191.44,41.64 190.512,42.056 C189.584,42.472 188.48,42.68 187.2,42.68 C185.472,42.68 184.12,42.184 183.144,41.192 C182.168,40.2 181.68,38.808 181.68,37.016 L181.68,37.016 L181.68,35.288 L198.576,35.288 L198.576,30.488 C198.576,28.92 198.304,27.496 197.76,26.216 C197.216,24.936 196.448,23.848 195.456,22.952 C194.464,22.056 193.272,21.36 191.88,20.864 C190.488,20.368 188.928,20.12 187.2,20.12 C185.44,20.12 183.856,20.36 182.448,20.84 C181.04,21.32 179.84,22.008 178.848,22.904 C177.856,23.8 177.088,24.888 176.544,26.168 C176,27.448 175.728,28.872 175.728,30.44 L175.728,30.44 L175.728,37.112 C175.728,38.68 176,40.104 176.544,41.384 C177.088,42.664 177.856,43.76 178.848,44.672 C179.84,45.584 181.048,46.28 182.472,46.76 C183.896,47.24 185.472,47.48 187.2,47.48 Z M192.72,31.256 L181.68,31.256 L181.68,30.44 C181.68,28.712 182.168,27.36 183.144,26.384 C184.12,25.408 185.472,24.92 187.2,24.92 C188.928,24.92 190.28,25.408 191.256,26.384 C192.232,27.36 192.72,28.728 192.72,30.488 L192.72,30.488 L192.72,31.256 Z M212.16,47 L212.16,30.584 C212.16,28.92 212.6,27.608 213.48,26.648 C214.36,25.688 215.568,25.208 217.104,25.208 C218.736,25.208 220.016,25.68 220.944,26.624 C221.872,27.568 222.336,28.888 222.336,30.584 L222.336,30.584 L222.336,31.976 L228.624,31.976 L228.624,30.056 C228.624,26.952 227.824,24.52 226.224,22.76 C224.624,21 222.4,20.12 219.552,20.12 C217.568,20.12 215.936,20.56 214.656,21.44 C213.376,22.32 212.576,23.56 212.256,25.16 L212.256,25.16 L211.824,25.16 L211.824,20.6 L206.16,20.6 L206.16,47 L212.16,47 Z" id="Reporter" fill="#141203" fill-rule="nonzero"></path>
        <path d="M0.814,86.74 C2.19266667,86.74 3.311,86.388 4.169,85.684 C5.027,84.98 5.55866667,83.9753333 5.764,82.67 L5.764,82.67 L7.15,73.914 L12.1,73.914 L12.386,72.11 L7.436,72.11 L7.744,70.24 C7.876,69.3893333 8.41133333,68.964 9.35,68.964 L9.35,68.964 L12.892,68.964 L13.178,67.16 L9.636,67.16 C8.58,67.16 7.711,67.4313333 7.029,67.974 C6.347,68.5166667 5.92533333,69.272 5.764,70.24 L5.764,70.24 L5.456,72.11 L1.936,72.11 L1.65,73.914 L5.17,73.914 L3.784,82.67 C3.66666667,83.418 3.38066667,83.99 2.926,84.386 C2.47133333,84.782 1.87,84.98 1.122,84.98 L1.122,84.98 L0.11,84.98 L-0.176,86.74 L0.814,86.74 Z M18.656,83.22 C20.1666667,83.22 21.417,82.7983333 22.407,81.955 C23.397,81.1116667 24.0166667,79.9566667 24.266,78.49 L24.266,78.49 L24.75,75.388 C24.9846667,73.9066667 24.739,72.7516667 24.013,71.923 C23.287,71.0943333 22.1686667,70.68 20.658,70.68 C19.91,70.68 19.2206667,70.79 18.59,71.01 C17.9593333,71.23 17.402,71.5453333 16.918,71.956 C16.434,72.3666667 16.0343333,72.8616667 15.719,73.441 C15.4036667,74.0203333 15.1873333,74.6766667 15.07,75.41 L15.07,75.41 L14.586,78.49 C14.3513333,79.9713333 14.5933333,81.13 15.312,81.966 C16.0306667,82.802 17.1453333,83.22 18.656,83.22 Z M18.942,81.46 C18.0473333,81.46 17.391,81.196 16.973,80.668 C16.555,80.14 16.4193333,79.414 16.566,78.49 L16.566,78.49 L17.05,75.41 C17.1966667,74.486 17.567,73.76 18.161,73.232 C18.755,72.704 19.492,72.44 20.372,72.44 C21.252,72.44 21.9083333,72.704 22.341,73.232 C22.7736667,73.76 22.9166667,74.486 22.77,75.41 L22.77,75.41 L22.286,78.49 C22.1393333,79.414 21.7653333,80.14 21.164,80.668 C20.5626667,81.196 19.822,81.46 18.942,81.46 Z M29.7,83 L30.91,75.41 C31.0566667,74.486 31.427,73.749 32.021,73.199 C32.615,72.649 33.352,72.374 34.232,72.374 C35.0973333,72.374 35.7316667,72.6416667 36.135,73.177 C36.5383333,73.7123333 36.6593333,74.4566667 36.498,75.41 L36.498,75.41 L36.41,75.96 L38.346,75.96 L38.456,75.168 C38.5733333,74.4933333 38.5806667,73.881 38.478,73.331 C38.3753333,72.781 38.181,72.308 37.895,71.912 C37.609,71.516 37.2313333,71.2116667 36.762,70.999 C36.2926667,70.7863333 35.75,70.68 35.134,70.68 C34.254,70.68 33.4766667,70.8853333 32.802,71.296 C32.1273333,71.7066667 31.6433333,72.2713333 31.35,72.99 L31.35,72.99 L31.174,72.99 L31.504,70.9 L29.678,70.9 L27.764,83 L29.7,83 Z M55.66,83 L56.826,75.63 L59.466,75.63 L62.194,83 L64.35,83 L61.248,74.882 L66.638,67.16 L64.328,67.16 L59.664,73.892 L57.112,73.892 L58.168,67.16 L56.188,67.16 L53.68,83 L55.66,83 Z M74.514,68.81 C74.9393333,68.81 75.3023333,68.6926667 75.603,68.458 C75.9036667,68.2233333 76.0906667,67.908 76.164,67.512 C76.2373333,67.116 76.1566667,66.7933333 75.922,66.544 C75.6873333,66.2946667 75.3573333,66.17 74.932,66.17 L74.932,66.17 L74.492,66.17 C74.0666667,66.17 73.7036667,66.2946667 73.403,66.544 C73.1023333,66.7933333 72.9153333,67.1233333 72.842,67.534 C72.7833333,67.93 72.8676667,68.2416667 73.095,68.469 C73.3223333,68.6963333 73.6486667,68.81 74.074,68.81 L74.074,68.81 L74.514,68.81 Z M77,83 L77.286,81.196 L73.656,81.196 L75.284,70.9 L69.454,70.9 L69.168,72.704 L73.018,72.704 L71.676,81.196 L67.276,81.196 L66.99,83 L77,83 Z M82.5,83 L83.71,75.41 C83.8566667,74.486 84.227,73.749 84.821,73.199 C85.415,72.649 86.152,72.374 87.032,72.374 C87.8973333,72.374 88.5316667,72.6416667 88.935,73.177 C89.3383333,73.7123333 89.4593333,74.4566667 89.298,75.41 L89.298,75.41 L89.21,75.96 L91.146,75.96 L91.256,75.168 C91.3733333,74.4933333 91.3806667,73.881 91.278,73.331 C91.1753333,72.781 90.981,72.308 90.695,71.912 C90.409,71.516 90.0313333,71.2116667 89.562,70.999 C89.0926667,70.7863333 88.55,70.68 87.934,70.68 C87.054,70.68 86.2766667,70.8853333 85.602,71.296 C84.9273333,71.7066667 84.4433333,72.2713333 84.15,72.99 L84.15,72.99 L83.974,72.99 L84.304,70.9 L82.478,70.9 L80.564,83 L82.5,83 Z M98.626,83.22 C99.8726667,83.22 100.928667,82.8093333 101.794,81.988 C102.659333,81.1666667 103.216667,80.0006667 103.466,78.49 L103.466,78.49 L103.95,75.41 C104.067333,74.706 104.071,74.0643333 103.961,73.485 C103.851,72.9056667 103.653,72.407 103.367,71.989 C103.081,71.571 102.707,71.2483333 102.245,71.021 C101.783,70.7936667 101.244,70.68 100.628,70.68 C99.7333333,70.68 98.9596667,70.8816667 98.307,71.285 C97.6543333,71.6883333 97.174,72.2566667 96.866,72.99 L96.866,72.99 L96.69,72.99 C96.7633333,72.7113333 96.8293333,72.4326667 96.888,72.154 C96.9466667,71.9193333 97.0016667,71.6663333 97.053,71.395 C97.1043333,71.1236667 97.1446667,70.8853333 97.174,70.68 L97.174,70.68 L97.724,67.16 L95.744,67.16 L93.236,83 L95.106,83 L95.436,80.91 L95.612,80.91 C95.6853333,81.6433333 95.9823333,82.2116667 96.503,82.615 C97.0236667,83.0183333 97.7313333,83.22 98.626,83.22 Z M98.164,81.504 C97.3426667,81.504 96.7266667,81.2326667 96.316,80.69 C95.9053333,80.1473333 95.7806667,79.414 95.942,78.49 L95.942,78.49 L96.426,75.41 C96.5726667,74.486 96.932,73.7526667 97.504,73.21 C98.076,72.6673333 98.7726667,72.396 99.594,72.396 C100.474,72.396 101.126667,72.6636667 101.552,73.199 C101.977333,73.7343333 102.116667,74.4713333 101.97,75.41 L101.97,75.41 L101.486,78.49 C101.339333,79.4286667 100.972667,80.1656667 100.386,80.701 C99.7993333,81.2363333 99.0586667,81.504 98.164,81.504 Z M110.946,86.74 C112.280667,86.74 113.355,86.399 114.169,85.717 C114.983,85.035 115.492667,84.0706667 115.698,82.824 L115.698,82.824 L117.634,70.9 L115.698,70.9 L114.664,77.39 C114.532,78.27 114.18,78.9703333 113.608,79.491 C113.036,80.0116667 112.332,80.272 111.496,80.272 C110.66,80.272 110.047667,80.008 109.659,79.48 C109.270333,78.952 109.149333,78.226 109.296,77.302 L109.296,77.302 L110.308,70.9 L108.372,70.9 L107.294,77.742 C107.103333,79.0033333 107.305,80.0116667 107.899,80.767 C108.493,81.5223333 109.384,81.9 110.572,81.9 C111.437333,81.9 112.192667,81.6983333 112.838,81.295 C113.483333,80.8916667 113.96,80.3233333 114.268,79.59 L114.268,79.59 L114.4,79.59 L113.96,81.68 L113.762,82.824 C113.644667,83.528 113.366,84.0706667 112.926,84.452 C112.486,84.8333333 111.914,85.024 111.21,85.024 L111.21,85.024 L107.998,85.024 L107.734,86.74 L110.946,86.74 Z" id="forKirby" fill="#141203" fill-rule="nonzero"></path>
    </g>
</svg>